<svg xmlns="http://www.w3.org/2000/svg" xmlns:xlink="http://www.w3.org/1999/xlink" version="1.1" x="0px" y="0px" viewBox="0 0 128 160" style="enable-background:new 0 0 128 128;" xml:space="preserve">
  <defs>
    <linearGradient id="greenGradient" x1="0%" y1="0%" x2="100%" y2="100%">
      <stop offset="0%" style="stop-color: #00FF00; stop-opacity: 1" />
      <stop offset="100%" style="stop-color: #008000; stop-opacity: 1" />
    </linearGradient>
  </defs>
  <path d="M30.5,40h8c2.2001877,0,4-1.7998009,4-4v-8c0-2.2001991-1.7998123-4-4-4h-8c-2.2002125,0-4,1.7998009,4,4v8C26.5,38.2001991,28.2997875,40,30.5,40z" fill="url(#greenGradient)" />
  <path d="M110.5062866,110.4541016c0.0571976-1.7832031,0.202713-5.1934052,0.5161972-7.0200043c1.6879044-9.8100967-1.5170975-19.181694-4.6166992-28.244194c-0.6362991-1.8598022-1.2695999-3.7119064-1.8564987-5.5566025c-0.8970032-2.8188019-3.4750977-4.7124023-6.4150009-4.7124023c-0.6889954-0-1.3731003,0.1069031-2.033699,0.3188019c-0.7099991,0.2276001-1.3794022,0.5756989-1.9765854,1.0259018c-1.7387161-1.6826019-4.3730011-2.3359032-6.7104111-1.5854034c-0.7685928,0.2455978-1.4824066,0.6298981-2.1109009,1.1307983c-1.2626877-1.6005936-3.1870041-2.5541954-5.271904-2.5541954c-0.6869965-0-1.3696976,0.1069984-2.0283966,0.3178978c-0.3291016,0.1049995-0.646904,0.2344017-0.9521027,0.3871994l-6.1654968-19.3563995C69.8144836,41.8075981,67.3163834,40,64.5210037,40c-0.6836166,0-1.3706169,0.1088982-2.0420036,0.3237c-3.5254135,1.1288986-5.4746132,4.9356003-4.345211,8.4854012l9.0679016,28.4892006c-2.6651001-2.8237-5.3858032-4.2524033-8.117691-4.2524033c-1.9751129,0-3.981514,0.852005-5.3667107,2.2793045c-1.1514015,1.185997-1.7602882,2.685997-1.714901,4.2235947c0.0971985,3.3130035,2.6841011,5.6464996,4.7626991,7.5214996l0.2314987,0.2089996c3.455101,3.1235046,6.430603,6.8447037,9.3081017,10.4434052c2.7699966,3.4637985,5.6343155,7.0458984,8.9589996,10.1528015c4.3705978,4.0848999,7.0752029,7.5429993,8.6958008,11.0971985c-1.4019012,1.1137009-2.0034027,3.264595-1.3291016,5.3833008C83.3134842,126.501503,85.1103897,128,87.0004883,128c0.3641968-0-0.0561981,1.0679016-0.1664963l24.2289963-7.7564011c2.1654968-0.6928024,3.2518997-3.3803024,2.4217987-5.9906998C114.0546875,111.9994965,112.3373871,110.5361023,110.5062866,110.4541016z" fill="url(#greenGradient)" />
  <path d="M26,46c0,0.5522003,0.4477882,1,1,1h27.8231888c-0.0170021-0.6763,0.0328102-1.346199,0.1523972-2H27C26.4477882,45,26,45.4477997,26,46z" fill="url(#greenGradient)" />
  <path d="M27,53h29.3197861l-0.6366997-2H27c-0.5522118,0-1,0.4477997-1,1S26.4477882,53,27,53z" fill="url(#greenGradient)" />
  <path d="M27,57c-0.5522118,0-1,0.4477997-1,1s0.4477882,1,1,1h31.2294884l-0.6366997-2H27z" fill="url(#greenGradient)" />
  <path d="M26,64c0,0.5522003,0.4477882,1,1,1h33.1391869l-0.6367989-2H27C26.4477882,63,26,63.4477997,26,64z" fill="url(#greenGradient)" />
  <path d="M22,128h56c0.9955902,0,1.9462891-0.1923981,2.8275833-0.528801c-0.435997-0.6654968-0.7997971-1.4009018-1.0555801-2.2055969c-0.7539139-2.3676987-0.4532166-4.7967987,0.625885-6.6772003c-1.1958008-2.0932999-2.885704-4.2290039-5.2031021-6.5884018H18V16h64v44.4696999c1.3534851,0.2798004,2.6337891,0.8334999,3.7357864,1.6333008C85.8222885,62.0668983,85.91259,62.0396004,86,62.0059013V8c0-4.3999-3.6001129-8-8-8H22c-4.3999119,0-8,3.6001-8,8v112C14,124.3999023,17.6000881,128,22,128z M43,118h14c0.5521889,0,1,0.4477997,1,1s-0.4478111,1-1,1H43c-0.5522118,0-1-0.4477997-1-1S42.4477882,118,43,118z M58,8c0.5517883,0,1,0.4482002,1,1c0,0.5527-0.4482117,1-1,1c-0.5518112,0-1-0.4473-1-1C57,8.4482002,57.4481888,8,58,8z M40,8h12c0.5521889,0,1,0.4477997,1,1s-0.4478111,1-1,1H40c-0.5522118,0-1-0.4477997-1-1S39.4477882,8,40,8z" fill="url(#greenGradient)" />
</svg>
